<?xml version="1.0" encoding="iso-8859-1"?>
<!-- Uploaded to: SVG Repo, www.svgrepo.com, Generator: SVG Repo Mixer Tools -->
<svg height="800px" width="800px" version="1.1" id="Layer_1" xmlns="http://www.w3.org/2000/svg" xmlns:xlink="http://www.w3.org/1999/xlink" 
	 viewBox="0 0 512 512" xml:space="preserve">
<g>
	<path style="fill:#B3404A;" d="M420.287,449.783c-8.116,0-14.697-6.58-14.697-14.697V334.965c0-26.337-21.427-47.765-47.765-47.765
		c-26.338,0-47.765,21.428-47.765,47.765c0,8.117-6.581,14.697-14.697,14.697c-8.116,0-14.697-6.58-14.697-14.697
		c0-42.546,34.614-77.159,77.159-77.159s77.159,34.613,77.159,77.159v100.122C434.984,443.203,428.403,449.783,420.287,449.783z"/>
	<path style="fill:#B3404A;" d="M232.901,479.18c-42.545,0-77.159-34.613-77.159-77.159v-114.82c0-8.117,6.581-14.697,14.697-14.697
		s14.697,6.58,14.697,14.697v114.82c0,26.337,21.427,47.765,47.765,47.765s47.765-21.428,47.765-47.765
		c0-8.117,6.581-14.697,14.697-14.697c8.116,0,14.697,6.58,14.697,14.697C310.06,444.566,275.446,479.18,232.901,479.18z"/>
	<path style="fill:#B3404A;" d="M311.38,59.433h-52.85c-8.116,0-14.697-6.58-14.697-14.697s6.581-14.697,14.697-14.697h52.85
		c8.116,0,14.697,6.58,14.697,14.697S319.497,59.433,311.38,59.433z"/>
	<path style="fill:#B3404A;" d="M170.439,309.283c-85.822,0-155.639-69.819-155.639-155.639V44.736
		c0-8.117,6.581-14.697,14.697-14.697h52.85c8.116,0,14.697,6.58,14.697,14.697s-6.581,14.697-14.697,14.697H44.193v94.211
		c0,69.612,56.633,126.246,126.246,126.246c69.611,0,126.244-56.633,126.244-126.246c0-8.117,6.581-14.697,14.697-14.697
		s14.697,6.58,14.697,14.697C326.077,239.465,256.257,309.283,170.439,309.283z"/>
</g>
<path style="fill:#F4B2B0;" d="M170.437,245.698c-77.841,0-140.943-63.101-140.943-140.943v48.888
	c0,77.84,63.101,140.943,140.943,140.943S311.38,231.485,311.38,153.644v-48.888C311.38,182.597,248.278,245.698,170.437,245.698z"
	/>
<path style="fill:#B3404A;" d="M170.439,309.283c-85.822,0-155.639-69.819-155.639-155.639v-48.888
	c0-8.117,6.581-14.697,14.697-14.697s14.697,6.58,14.697,14.697C44.193,174.368,100.826,231,170.439,231
	c69.611,0,126.244-56.633,126.244-126.244c0-8.117,6.581-14.697,14.697-14.697s14.697,6.58,14.697,14.697v48.888
	C326.077,239.465,256.257,309.283,170.439,309.283z M59.444,213.757c21.403,39.357,63.131,66.132,110.993,66.132
	s89.59-26.775,110.993-66.132c-28.258,28.766-67.58,46.636-110.993,46.636C127.025,260.395,87.702,242.524,59.444,213.757z"/>
<circle style="fill:#F4B2B0;" cx="101.36" cy="51.439" r="36.742"/>
<path style="fill:#B3404A;" d="M101.361,102.879c-28.364,0-51.439-23.076-51.439-51.439S72.998,0,101.361,0
	s51.439,23.076,51.439,51.439S129.725,102.879,101.361,102.879z M101.361,29.394c-12.156,0-22.045,9.89-22.045,22.045
	s9.89,22.045,22.045,22.045s22.045-9.89,22.045-22.045S113.517,29.394,101.361,29.394z"/>
<circle style="fill:#F4B2B0;" cx="239.516" cy="51.439" r="36.742"/>
<path style="fill:#B3404A;" d="M239.516,102.879c-28.364,0-51.439-23.076-51.439-51.439S211.152,0,239.516,0
	s51.439,23.076,51.439,51.439S267.88,102.879,239.516,102.879z M239.516,29.394c-12.156,0-22.045,9.89-22.045,22.045
	s9.89,22.045,22.045,22.045c12.156,0,22.045-9.89,22.045-22.045S251.672,29.394,239.516,29.394z"/>
<circle style="fill:#F4B2B0;" cx="420.289" cy="435.089" r="62.212"/>
<path style="fill:#B3404A;" d="M420.287,512c-42.411,0-76.915-34.504-76.915-76.914s34.504-76.914,76.915-76.914
	c42.41,0,76.914,34.504,76.914,76.914S462.697,512,420.287,512z M420.287,387.565c-26.203,0-47.521,21.318-47.521,47.52
	c0,26.202,21.318,47.52,47.521,47.52c26.202,0,47.52-21.318,47.52-47.52C467.807,408.883,446.489,387.565,420.287,387.565z"/>
</svg>